<?xml version="1.0" encoding="utf-8"?>
<!-- Generator: Adobe Illustrator 27.0.0, SVG Export Plug-In . SVG Version: 6.00 Build 0)  -->
<svg version="1.1" id="Layer_1" xmlns="http://www.w3.org/2000/svg" xmlns:xlink="http://www.w3.org/1999/xlink" x="0px" y="0px"
	 viewBox="0 0 716 285" style="enable-background:new 0 0 716 285;" xml:space="preserve">
<style type="text/css">
	.st0{fill-rule:evenodd;clip-rule:evenodd;fill:#EC1C24;stroke:#FFFFFF;stroke-width:8;stroke-miterlimit:10;}
	.st1{fill:#FFFFFF;}
</style>
<g>
	<polygon class="st0" points="371.38,4.51 345.41,4.51 332.88,4.93 319.76,5.36 307.37,6.03 295,6.88 282.44,7.97 282.44,7.76 
		270.42,9.07 258.55,10.6 246.67,12.11 234.63,13.85 222.76,15.79 212.5,17.74 200.77,19.94 190.35,22.55 180.23,24.92 
		169.36,27.75 159.12,30.79 149.35,33.62 140.08,36.45 130.48,39.72 121.74,42.97 112.72,46.68 104.81,49.94 96.14,53.83 
		88.98,57.54 81.15,61.43 73.98,65.58 73.98,65.37 67.68,68.83 67.68,69.05 60.69,73.61 55.12,77.32 49.4,81.88 43.94,86.23 
		38.71,91.02 34.53,95.15 30.71,99.26 30.54,99.26 27.18,102.97 24.24,107.11 19.71,114.05 19.36,114.47 18.67,115.78 16.24,121.23 
		14.3,126.22 14.3,126.43 13.12,130.78 12.71,131.67 12.02,134.04 12.02,134.29 11.85,136.86 11.85,137.08 11.5,142.73 11.85,148.4 
		11.85,148.61 12.02,151.24 12.02,151.44 12.54,153.39 12.71,153.85 13.12,154.7 14.3,159.06 14.3,159.26 16.06,163.83 
		16.24,164.25 18.31,168.61 19.88,171.65 23.72,177.31 24.07,177.73 27.18,182.55 28.77,184.49 37.36,193.4 38.54,194.47 
		38.89,194.94 42.59,198.39 52.35,206 54.95,207.73 66.33,215.56 66.47,215.8 67.51,216.44 73.98,220.12 80.97,224.04 88.8,228.19 
		96.14,231.87 96.14,231.65 104.45,235.54 112.55,239.01 121.56,242.48 130.66,245.98 139.73,249.03 151.43,252.71 151.78,252.92 
		159.12,254.87 169.36,257.91 179.31,260.52 190.16,262.94 201.29,265.55 212.33,267.7 222.76,269.86 234.63,271.63 246.5,273.37 
		258.72,275.1 269.9,276.62 282.44,277.72 295,278.78 307.37,279.66 319.93,280.3 332.64,280.76 345.41,280.98 358.64,281.19 
		371.61,280.98 384.15,280.76 396.87,280.3 409.6,279.66 421.79,278.78 434.59,277.72 446.96,276.62 458.28,275.1 470.29,273.37 
		482.34,271.63 495.05,269.65 495.28,269.65 504.49,267.7 515.67,265.55 526.86,262.94 526.86,263.14 536.8,260.74 547.59,257.91 
		557.89,254.87 567.13,252.28 577.07,249.03 586.31,245.98 594.89,242.69 604.1,239.01 612.66,235.54 620.69,231.65 628.74,227.98 
		634.63,224.93 635.16,224.47 642.81,220.12 651.39,215.35 662.19,207.53 665.03,205.57 672.86,199.49 678.26,194.47 680.86,192.1 
		689.62,182.55 692.9,177.73 696.77,171.9 698.71,168.39 700.42,165.35 702.84,158.16 703.01,157.95 703.94,154.7 704.25,153.85 
		704.43,152.75 705.12,146.88 705.12,146.45 705.3,142.73 705.12,139.06 705.12,138.61 704.43,132.98 704.25,131.67 703.94,130.78 
		702.84,126.43 702.66,126.22 700.77,121.23 697.3,114.26 697.3,114.05 692.73,107.11 689.62,103.18 688.03,101.24 687.67,101.02 
		682.13,94.91 677.42,90.13 674.45,87.3 667.97,82.31 662.57,78.17 655.93,73.4 650.38,69.72 643.22,65.58 635.51,61.43 
		627.82,57.08 620.86,53.62 620.86,53.83 612.34,49.94 604.83,46.68 595.24,43.18 586.66,39.72 576.89,36.45 567.64,33.62 
		557.89,30.79 547.59,27.75 537.49,25.14 526.68,22.55 516.2,19.94 506.58,17.98 506.26,17.98 495.28,15.79 495.05,15.79 
		482.34,13.85 470.29,12.11 458.42,10.6 446.55,9.07 434.59,7.76 434.59,7.97 421.79,6.88 409.6,6.03 397.21,5.36 384.32,4.93 	"/>
	<g>
		<path class="st1" d="M59.79,136.99c3.55-7.88,8.23-17.95,8.23-26.98c0-7.88,3.66-13.83,13.83-13.83
			c9.95,0,16.23,10.17,20.69,17.72c1.95,3.31,19.2,38.29,23.32,47.66c3.77,8.69,9.95,3.43,9.95,9.95c0,8.34-16.23,8-21.95,8
			c-16.34,0-26.17-0.12-26.17-7.2c0-5.48,6.97-3.43,6.97-7.43c0-5.14-2.86-5.6-21.26-5.6c-5.95,0-9.48,0.23-9.48,5.83
			c0,4.46,7.31,1.48,7.31,7.43c0,6.86-12.34,6.97-16.91,6.97c-16.34,0-17.83-3.09-17.83-6.74c0-5.38,6.17-3.77,9.48-7.88
			c2.52-3.09,4.91-8.57,6.63-12.23L59.79,136.99z M83.79,145.21c1.14,0,4.57,0.23,4.57-1.48s-3.31-7.66-4.23-9.26
			c-1.03-1.83-2.97-6.05-5.48-6.05c-2.74,0-4.69,6.86-5.14,8.12c-0.46,1.26-2.4,5.72-2.4,7.09c0,1.95,2.86,1.6,4.12,1.6
			L83.79,145.21L83.79,145.21z"/>
		<path class="st1" d="M148.49,178.25c-3.66,0-9.48,0.23-9.48-5.03c0-7.09,8.91-1.14,9.26-14.4c0.23-8.34,0.23-15.66,0.23-22.41
			c0-6.86-0.57-13.26-0.8-19.66c-0.23-9.6-10.29-4.57-10.29-11.09c0-8.34,17.95-8.81,23.55-8.81c22.86,0.57,24,3.88,24,7.77
			c0,6.63-9.03,1.6-9.03,12.34v36.34c0,8.23,1.38,12.23,9.48,12.23c19.43,0,12.81-15.89,20.12-15.89c5.14,0,7.09,5.48,7.09,9.83
			c0,8.91-6.4,20.34-11.66,20.34c-2.05,0-3.66-0.46-5.72-0.8c-2.17-0.46-4.69-0.8-8.57-0.8h-38.18V178.25z"/>
		<path class="st1" d="M224.5,178.25c-3.66,0-9.48,0.23-9.48-5.03c0-7.09,8.91-1.14,9.26-14.4c0.23-8.34,0.23-15.66,0.23-22.41
			c0-6.86-0.57-13.26-0.8-19.66c-0.23-9.6-10.29-4.57-10.29-11.09c0-8.34,17.95-8.81,23.55-8.81c22.86,0.57,24,3.88,24,7.77
			c0,6.63-9.03,1.6-9.03,12.34v36.34c0,8.23,1.38,12.23,9.48,12.23c19.43,0,12.81-15.89,20.12-15.89c5.14,0,7.09,5.48,7.09,9.83
			c0,8.91-6.4,20.34-11.66,20.34c-2.05,0-3.66-0.46-5.72-0.8c-2.17-0.46-4.69-0.8-8.57-0.8H224.5V178.25z"/>
		<path class="st1" d="M386.58,125.68c1.38,1.14,5.03,4.46,7.09,4.46c2.86,0,2.97-4.69,2.97-6.63c0-2.86-0.12-7.77-1.03-10.4
			c-1.6-4.8-7.66-3.09-7.66-9.26c0-7.31,11.66-6.97,16.46-6.97c5.03,0,17.48-0.57,17.48,7.31c0,6.52-6.05,4.12-8,9.38
			c-1.48,4.12-1.48,11.2-1.48,15.55v29.6c0,5.14,0.69,20.81-6.97,20.81c-2.29,0-4.23-1.38-5.95-2.86l-35.32-31.67
			c-1.6-1.48-4.57-4.23-6.97-4.23c-3.55,0-3.66,7.43-3.66,9.83c0,3.2,0.12,7.43,0.8,10.4c1.71,7.31,7.77,4.57,7.77,10.17
			c0,7.66-11.77,8.34-17.15,8.34c-5.26,0-17.03-0.69-17.03-8.12c0-6.05,6.63-3.66,7.77-10.97c0.8-4.91,1.03-12.12,1.03-17.26
			c0-8.23,0-16.57-1.26-24.81c-1.83-11.43-10.05-6.97-10.05-13.83c0-8.12,15.43-7.66,20.57-7.66c7.09,0,8.34,0.46,13.48,5.03
			L386.58,125.68z"/>
		<path class="st1" d="M495.5,117.9c0-12.23-9.83-7.55-9.83-14.17c0-7.09,13.26-6.86,17.95-6.86c4.34,0,16.91,0,16.91,6.63
			c0,6.4-8.57,2.52-8.57,12.91v30.86c0,5.14,0.12,32.58-39.43,32.58c-45.03,0-40.01-34.75-40.01-36.12v-26.41
			c0.46-7.2-7.31-7.2-7.31-12.46c0-1.6-1.26-8,22.29-8c18.63,0,22.41,3.43,22.41,7.88c0,8.23-8.34,0.57-8.91,14.52v21.03
			c0,13.6,5.14,22.29,17.26,22.29c18.06,0,17.26-14.98,17.26-16.23L495.5,117.9L495.5,117.9z"/>
		<path class="st1" d="M579.06,98.13c4.91,0,7.2-0.46,8.91-0.8c1.6-0.46,2.52-0.8,4.69-0.8c4.46,0,13.72,8.81,13.72,21.15
			c0,5.72-2.97,9.48-8.8,9.48c-9.95,0-9.83-13.48-15.66-13.48c-4.46,0-4,6.17-4,7.09v35.09c0,13.6,10.52,7.09,10.52,15.09
			c0,3.55-2.17,8.57-23.55,8.57c-5.83,0-27.2,0.23-27.2-8.57c0-6.05,7.09-3.66,9.38-8c1.14-2.4,1.6-9.26,1.71-12.12l0.91-25.26
			c0.46-12-1.95-11.89-3.55-11.89c-5.14,0-7.66,13.48-16.91,13.48c-4.46,0-7.09-4.12-7.09-8.23c0-9.72,8.23-22.41,14.74-22.41
			c0.8,0,2.05,0.34,4.23,0.8c2.17,0.34,5.26,0.8,9.83,0.8L579.06,98.13L579.06,98.13z"/>
		<path class="st1" d="M610.95,123.16c0-11.89,11.43-26.63,33.6-26.63c7.31,0,15.55,3.31,17.26,3.31c1.6,0,3.2-1.38,5.6-1.38
			c3.88,0,12.57,8.46,12.57,18.06c0,3.88-2.52,7.77-6.74,7.77c-7.66,0-12.12-13.03-24-13.03c-3.55,0-7.31,1.6-7.31,5.72
			c0,9.03,15.66,6.63,28.91,15.43c7.09,4.69,10.63,10.4,10.63,18.98c0,13.38-10.97,28.46-37.6,28.46c-7.55,0-20.46-1.95-26.98-5.48
			c-5.48-3.09-8.12-15.2-8.12-21.03c0-3.09,1.38-6.17,4.8-6.17c8.12,0,6.74,18.17,27.77,18.17c2.52,0,8.81-1.26,8.81-5.6
			c0-8.23-15.66-6.17-28.34-16.34C615.52,138.36,610.95,131.39,610.95,123.16z"/>
	</g>
</g>
</svg>
